<svg xmlns="http://www.w3.org/2000/svg" version="1.2" height="113" width="450">
    <defs>
        <filter height="1" width="1" y="0" x="0" filterUnits="objectBoundingBox" id="a">
            <feColorMatrix values="0 0 0 0 1 0 0 0 0 1 0 0 0 0 1 0 0 0 1 0" in="SourceGraphic"/>
        </filter>
        <clipPath id="e">
            <path d="M.277.52h369v74.816h-369zm0 0"/>
        </clipPath>
        <clipPath id="c">
            <path d="M10 8h359.277v66H10zm0 0"/>
        </clipPath>
        <clipPath id="b">
            <path d="M0 0h370v76H0z"/>
        </clipPath>
        <g clip-path="url(#b)">
            <g clip-path="url(#c)" id="f">
                <path d="M10.027 73.586H390.07V8.27H10.027zm0 0"/>
            </g>
        </g>
        <clipPath id="g">
            <path d="M9 7h360.277v68H9zm0 0"/>
        </clipPath>
        <clipPath id="d">
            <path d="M0 0h370v76H0z"/>
        </clipPath>
        <clipPath id="h">
            <path d="M360.188 115H527v41.723H360.187zm0 0"/>
        </clipPath>
    </defs>
    <g clip-path="url(#h)" transform="matrix(2.70657 0 0 2.70657 -974.88 -311.218)">
        <path d="M476.426 116.488S461.68 115 443.324 115c-13.375-.066-26.215 1.082-32.867 1.766-31.605 3.246-50.105 10.785-50.266 19.12-.062 3.231 4.184 7.302 9.864 9.739 12.343 5.29 28.125 7.934 40.797 9.34 32.152 3.566 65.265 1.273 86.742-3.008 24.129-4.812 28.86-11.703 28.86-11.703s-14.43 8.098-56.755 10.02c-32.797 1.492-63.73-2.403-74.472-5.372-12.805-3.535-22.301-7.254-19.48-13.547 3.124-6.976 25.26-11.53 39.28-13.148 4.239-.488 16.715-1.89 28.215-2.164 17.637-.48 33.184.445 33.184.445" fill="#bfc2c5"/>
    </g>
    <path d="M338.513 11.72l-26.6 3.003s-1.174.021-1.809.475c-.687.497-.803 1.153-.803 1.153s-8.68 24.729-12.476 35.904c-3.795 11.175-12.951 36.803-12.951 36.803s-.222.412-.01.719c.232.328 1.025.233 1.025.233h25.607s.55.21.972-.328c.444-.54.761-1.406.761-1.406s7.052-21.695 13.46-40.356c5.2-15.16 14.071-34.889 14.071-34.889s.465-.878-.084-1.269c-.338-.232-1.163-.042-1.163-.042" fill="#00457a"/>
    <path d="M310.496 89.048l.243.021c.285-.37.528-.951.602-1.131.053-.18 7.105-21.885 13.438-40.334 5.16-15.024 14.02-34.763 14.104-34.964 0-.01.01-.01.01-.021-.074.021-.137.031-.158.042l-26.717 3.013c-.444.01-1.089.106-1.343.296-.348.254-.433.56-.433.571-.116.37-8.754 24.983-12.507 36.02-3.521 10.372-11.768 33.473-12.846 36.497zm.264 1.955c-.148 0-.286-.01-.391-.042H284.93c-.021.01-.158.022-.306.022-.72 0-1.237-.222-1.544-.656-.412-.581-.285-1.29-.053-1.723.032-.116 9.145-25.617 12.888-36.655 3.764-11.048 12.402-35.672 12.486-35.915-.01 0 .19-.92 1.142-1.617.835-.603 2.104-.645 2.347-.656l26.505-2.992c-.021 0 .36-.084.762-.084.444 0 .782.095 1.068.296.856.602.792 1.723.38 2.505-.063.138-8.891 19.803-14.019 34.742-6.322 18.438-13.374 40.122-13.438 40.344-.053.138-.412 1.068-.93 1.713-.37.465-.888.72-1.46.72" fill="#fff"/>
    <path d="M221.644 83.391s-.211 1.3-.539 2.39c-.328 1.078-.867 3.594-.867 3.594s-.053.317-.222.465c-.243.212-.73.17-.73.17h-24.411s-.381 0-.508-.096c-.264-.2.053-.782.053-.782l.93-3.7-.18.137s-1.046.73-3.33 1.872c-2.294 1.163-9.113 3.753-18.248 3.256-8.638-.465-15.171-3.944-17.941-9.737-3.997-8.363.634-17.434.634-17.434s2.929-.286 7.591-1.185c4.578-.888 9.928-2.252 16.282-5.878 8.595-4.916 12.317-13.47 12.317-13.47s2.442-.285 6.428-.486c4.662-.232 9.674-.232 9.674-.232h49.532s.55-.053.687.169c.18.317-.022.656-.022.656s-5.497 15.816-7.073 19.675c-1.924 4.726-2.611 8.035-2.611 8.035s-2.125 5.952 4.853 6.576c4.556.413 8.627-1.829 8.627-1.829l10.255-32.605s.032-.297.317-.519c.286-.221.73-.158.73-.158s8.67-.222 11.609-.317c2.368-.085 14.368-.571 14.368-.571s.327-.138.518.169c.116.211-.106.772-.106.772s-2.897 8.3-8.099 23.376c-5.085 14.727-8.33 23.47-8.33 23.47s-.107.413-.36.667c-.243.232-1.026.169-1.026.169H258.86s-.645 0-.867-.127c-.38-.233 0-.846 0-.846l1.395-4.007s-2.611 2.062-8.553 3.912c-9.145 2.833-16.831 2.23-22.498.169-5.223-1.914-6.735-5.445-6.735-5.445l14.072-41.391zm-16.197-29.55h-3.743s-5.455.084-8.806 1.723c-3.352 1.64-6.936 4.06-9.03 8.807-2.23 5.086-2.537 9.114-.147 12.095 2.389 2.982 7.39 2.538 8.955 2.316 1.564-.222 4.704-1.713 4.704-1.713zm0 0" fill="#00457a" fill-rule="evenodd"/>
    <path d="M201.715 54.803c-.211 0-5.329.117-8.395 1.618-2.907 1.427-6.512 3.658-8.574 8.33-2.22 5.055-2.315 8.575-.275 11.123 2.062 2.58 6.534 2.167 8.067 1.956 1.026-.148 3.034-.994 4.07-1.47l7.486-21.557zm-11.355 25.1c-2.336 0-5.519-.498-7.39-2.834-2.485-3.108-2.485-7.39.022-13.089 2.315-5.244 6.29-7.707 9.483-9.272 3.51-1.723 8.987-1.819 9.22-1.83h5.095l-8.637 24.878-.36.17c-.338.168-3.32 1.564-4.98 1.807-.56.074-1.437.17-2.452.17m-33.43-15.49c-.825 1.904-3.659 9.336-.413 16.134 2.57 5.392 8.818 8.744 17.128 9.198 10.107.54 17.064-2.801 17.761-3.15 2.178-1.11 3.204-1.808 3.214-1.819l2.316-1.691-1.512 5.952 23.894.01c.148-.644.581-2.59.867-3.541.18-.603.328-1.28.423-1.745l-.032-.052.084-.254c.032-.138.043-.222.043-.222l13.628-40.006h-25.755c-.053 0-5.032.01-9.621.243-2.855.137-4.916.327-5.836.412-.973 1.977-4.832 9.04-12.486 13.406-6.481 3.71-12.021 5.106-16.578 5.984-3.542.687-6.069 1.026-7.126 1.142m102.067 24.634h23.45l.265.972v-.962h.148c.021-.042.031-.095.042-.127.063-.18 3.33-8.997 8.352-23.534 4.589-13.28 7.38-21.293 7.983-23.027-2.538.106-11.694.465-13.724.55-2.939.095-11.619.306-11.619.306h-.169l-10.361 32.987-.338.18c-.159.095-4.377 2.368-9.167 1.955-2.495-.222-4.25-1.11-5.223-2.632-1.47-2.294-.486-5.107-.444-5.223-.01-.01.688-3.33 2.622-8.078 1.396-3.436 5.995-16.577 6.904-19.189h-21.356l-13.723 40.366c.475.836 2.114 3.183 6.026 4.62 6.322 2.305 13.998 2.263 21.885-.18 5.667-1.765 8.215-3.731 8.247-3.753l2.558-2.019zm-20.214 2.78c-3.849 0-7.464-.613-10.774-1.818-3.013-1.11-4.884-2.717-5.973-3.997-.01.011-.01.022-.01.043-.308 1.036-.847 3.5-.857 3.52-.022.138-.127.635-.508.973-.391.349-.898.423-1.258.423l-24.528-.01c-.317 0-.75-.043-1.068-.276-.55-.401-.655-1.13-.296-1.892l.338-1.322c-.444.243-.962.518-1.575.825-1.216.624-8.32 3.922-18.734 3.362-9.03-.497-15.87-4.24-18.756-10.287-4.145-8.69.454-17.9.655-18.28l.233-.465.528-.053c.022 0 2.94-.296 7.486-1.184 4.63-.888 9.78-2.21 15.996-5.762 8.204-4.684 11.884-12.94 11.915-13.025l.222-.508.55-.053c.106-.01 2.516-.285 6.48-.486 4.642-.232 9.675-.243 9.728-.243h49.532c.899-.042 1.332.349 1.512.645.338.592.2 1.247-.022 1.628-.148.476-5.445 15.71-7.01 19.549-1.86 4.578-2.558 7.844-2.558 7.876-.042.148-.74 2.189.222 3.68.634.993 1.914 1.575 3.774 1.744 3.49.328 6.724-1.068 7.75-1.554l10.139-32.225c0-.148.19-.624.624-.973.317-.254.719-.38 1.173-.38l.296.031c-.084-.022 8.522-.233 11.44-.328a8428.67 8428.67 0 0 0 14.188-.57h.022l.36-.032c.475 0 .898.232 1.162.655.307.518.159 1.174-.031 1.628 0 0-2.887 8.3-8.088 23.334-5.022 14.558-8.3 23.397-8.332 23.492 0 .01-.158.582-.581 1.004-.307.307-.782.455-1.438.455-.2 0-.349-.01-.349-.01H258.86c-.413 0-.984-.043-1.343-.254a1.264 1.264 0 0 1-.613-.804c-.127-.518.084-1.015.211-1.258l.486-1.406c-1.448.761-3.573 1.713-6.48 2.611-4.22 1.311-8.374 1.978-12.339 1.978" fill="#fff"/>
    <path d="M201.715 54.76c-.211.012-5.329.128-8.405 1.64-2.918 1.416-6.534 3.658-8.596 8.341-2.23 5.065-2.315 8.606-.274 11.154 2.082 2.59 6.565 2.189 8.109 1.977 1.036-.158 3.055-1.004 4.091-1.48l7.507-21.631zM190.36 79.87c-2.326 0-5.498-.496-7.358-2.822-2.485-3.098-2.474-7.37.021-13.047 2.305-5.233 6.27-7.707 9.473-9.261 3.5-1.713 8.966-1.819 9.198-1.819h5.043l-8.606 24.814-.36.17c-.327.147-3.308 1.553-4.968 1.786-.55.084-1.427.18-2.442.18m-33.452-15.49c-.825 1.872-3.69 9.347-.423 16.177 2.58 5.413 8.828 8.775 17.149 9.219 10.128.57 17.085-2.802 17.793-3.15 2.178-1.11 3.204-1.808 3.214-1.82l2.231-1.638-1.49 5.9 23.904.021.063-.01c.138-.624.582-2.601.867-3.574.19-.592.339-1.28.423-1.744l-.022-.053.085-.243c.022-.138.031-.222.031-.222l13.65-40.049h-25.808c-.053 0-5.032.01-9.632.233-2.865.148-4.937.338-5.857.422-.951 1.946-4.8 9.03-12.475 13.417-6.47 3.69-12.01 5.096-16.567 5.973-3.563.698-6.09 1.026-7.137 1.142M258.954 89.09h23.492l.265.93v-.93h.169l.063-.158c.053-.159 3.32-8.987 8.342-23.524 4.652-13.448 7.454-21.494 8.003-23.09-2.653.126-11.746.486-13.776.56-2.939.106-11.619.317-11.619.317h-.253l-10.298 32.997-.328.169c-.169.095-4.377 2.368-9.145 1.945-2.484-.222-4.24-1.1-5.202-2.611-1.459-2.273-.486-5.075-.444-5.191-.01-.01.688-3.33 2.622-8.078 1.407-3.446 6.048-16.736 6.915-19.231h-21.43l-13.724 40.397c.465.825 2.094 3.204 6.048 4.652 6.333 2.305 14.008 2.263 21.906-.18 5.677-1.765 8.225-3.742 8.257-3.763l2.474-1.935zm-20.172 2.707c-3.838 0-7.464-.613-10.763-1.819-3.045-1.12-4.916-2.76-6.005-4.038-.01.031-.01.074-.022.105-.317 1.037-.846 3.5-.856 3.521a1.76 1.76 0 0 1-.508.962c-.37.339-.867.402-1.226.402h-24.528c-.307 0-.74-.042-1.058-.275-.528-.391-.623-1.11-.274-1.85l.36-1.406c-.456.253-1.005.55-1.65.867-1.216.623-8.32 3.912-18.714 3.351-9.018-.486-15.837-4.229-18.724-10.266-4.133-8.67.455-17.857.656-18.248l.222-.444.507-.053c.032 0 2.94-.285 7.496-1.173 4.631-.899 9.78-2.22 16.007-5.773 8.215-4.694 11.894-12.951 11.926-13.036l.211-.486.54-.063c.095-.011 2.516-.286 6.47-.487 4.641-.232 9.674-.232 9.727-.232h49.553c.92 0 1.29.338 1.46.624.327.581.2 1.215-.022 1.585-.148.487-5.445 15.722-7.01 19.56-1.86 4.577-2.559 7.844-2.57 7.876-.03.138-.74 2.2.233 3.711.645.994 1.925 1.586 3.807 1.755 3.499.307 6.766-1.078 7.78-1.554l10.14-32.236c0-.158.19-.623.613-.962.307-.243.709-.37 1.153-.37l.296.022c-.096-.01 8.521-.233 11.44-.328 2.198-.084 12.75-.507 14.198-.56l.022-.011.348-.032c.466 0 .878.233 1.132.635.306.518.148 1.152-.032 1.607 0 0-2.886 8.289-8.088 23.333-5.022 14.559-8.3 23.397-8.331 23.492 0 .011-.159.582-.57.984-.307.306-.773.454-1.418.454-.2 0-.349-.01-.349-.01H258.86c-.413 0-.973-.043-1.332-.254a1.264 1.264 0 0 1-.592-.782c-.127-.508.084-1.005.211-1.237l.518-1.491c-1.438.761-3.595 1.734-6.555 2.654-4.208 1.31-8.363 1.977-12.328 1.977" fill="#fff"/>
    <path d="M108.508 12.63s.2-.804.454-1.058c.233-.222 1.015-.18 1.015-.18s37.903-.36 48.21-.253c9.76.106 16.917 1.29 23.905 4.05 6.143 2.441 11.133 8.32 12.275 14.018 1.079 5.382.486 12.983-7.105 21.526-7.126 8.014-18.597 11.101-27.9 12.39-8.448 1.164-10.89 1.143-18.005 1.407-7.243.264-16.092.232-16.092.232l-8.331 24.772s-.053.254-.148.36c-.127.147-.37.116-.37.116l-34.847.317s-.518.074-.677-.159c-.148-.211.032-.486.032-.486S91.792 63.536 97.322 47.91c3.89-10.953 11.185-35.28 11.185-35.28m29.868 14.23l-7.306 21.304s8.49.222 13.068-.423c5.498-.772 10.234-2.876 12.39-5.805 6.788-9.208-.411-13.11-3.34-14.04-2.749-.867-7.052-1.036-7.052-1.036zm0 0" fill="#00457a" fill-rule="evenodd"/>
    <path d="M132.402 47.223c2.558.031 8.214.042 11.598-.423 5.413-.762 9.81-2.791 11.756-5.435 2.305-3.118 3.109-5.825 2.39-8.045-.994-3.024-4.547-4.293-5.244-4.515-2.59-.814-6.756-.983-6.798-.983h-7.052zm2.125 1.934c-2.03 0-3.479-.042-3.479-.042l-1.31-.031 7.95-23.175h8.447c.222 0 4.504.18 7.338 1.067 1.205.392 5.244 1.935 6.491 5.752.92 2.844.022 6.132-2.664 9.78-2.252 3.044-7.126 5.36-13.036 6.184-2.728.381-6.798.466-9.737.466m-24.93-36.803c-.043.127-.117.338-.17.518-.074.275-7.358 24.507-11.196 35.365-4.99 14.072-14.4 36.93-16.134 41.137l34.033-.327 8.448-25.248h1.68c2.623 0 9.336-.021 15.067-.232l2.114-.074c5.52-.19 8.29-.285 15.796-1.322 12.539-1.733 21.726-5.793 27.308-12.073 5.974-6.725 8.29-13.681 6.883-20.701-1.089-5.466-6.005-11.06-11.683-13.311-6.808-2.696-13.86-3.89-23.566-3.986-10.202-.106-47.861.243-48.19.243-.179 0-.306.01-.39.01M81.379 89.387v.952l.063-.92c-.022-.01-.042-.022-.063-.032m0 1.914c-.73 0-1.1-.328-1.28-.592-.37-.55-.222-1.184.032-1.565.022-.084 10.826-26.125 16.292-41.55 3.827-10.805 11.09-34.995 11.165-35.238.095-.36.317-1.079.698-1.46.327-.316.803-.464 1.533-.464l.21.01c.223-.01 28.716-.275 42.82-.275 2.156 0 3.996 0 5.35.022 9.959.095 17.211 1.332 24.242 4.113 6.344 2.516 11.63 8.563 12.867 14.717 1.533 7.644-.941 15.16-7.327 22.36-5.9 6.619-15.478 10.9-28.493 12.698-7.601 1.047-10.403 1.142-15.985 1.332l-2.104.085c-5.762.211-12.508.232-15.14.232h-.307l-8.109 24.116c-.01.084-.116.412-.317.656a1.358 1.358 0 0 1-1.047.475l-.19-.01zm0 0" fill="#fff"/>
    <path d="M132.349 47.265c2.537.032 8.246.042 11.661-.434 5.424-.76 9.822-2.79 11.778-5.444 2.305-3.13 3.108-5.847 2.39-8.067-.994-3.056-4.568-4.324-5.276-4.546-2.59-.815-6.756-.984-6.798-.994h-7.073zm2.178 1.85c-2.03 0-3.479-.032-3.479-.032l-1.258-.031 7.919-23.112h8.426c.222.011 4.494.18 7.327 1.079 2.485.782 5.487 2.696 6.47 5.73.92 2.823.022 6.1-2.664 9.737-2.241 3.035-7.105 5.35-13.004 6.175-2.738.38-6.809.454-9.737.454m-24.952-36.792a5.337 5.337 0 0 0-.18.54c-.073.274-7.358 24.506-11.206 35.364-5 14.125-14.463 37.1-16.144 41.18l34.117-.317 8.437-25.258 1.66.011c2.622 0 9.335-.022 15.066-.233l2.114-.074c5.52-.2 8.29-.296 15.796-1.332 12.55-1.734 21.747-5.793 27.34-12.084 5.974-6.724 8.3-13.702 6.883-20.733-1.09-5.466-6.016-11.08-11.704-13.342-6.809-2.686-13.86-3.88-23.577-3.976a354.411 354.411 0 0 0-5.328-.031c-14.093 0-42.576.275-42.861.275-.201 0-.328 0-.412.01M81.379 91.258c-.72 0-1.079-.307-1.248-.571-.37-.54-.211-1.152.032-1.523.021-.095 10.826-26.135 16.292-41.55 3.827-10.815 11.09-35.005 11.164-35.248.096-.36.318-1.068.698-1.438.307-.317.783-.465 1.502-.465l.21.01c.223-.01 28.716-.275 42.82-.275 2.156 0 3.996.011 5.35.022 9.959.106 17.2 1.332 24.232 4.113 6.332 2.516 11.608 8.553 12.845 14.696 1.523 7.622-.94 15.129-7.327 22.318-5.888 6.63-15.457 10.89-28.46 12.698-7.602 1.046-10.404 1.142-15.986 1.332l-2.104.074c-5.762.211-12.508.232-15.14.232h-.328l-8.12 24.148c-.021.084-.116.412-.317.645-.253.307-.613.455-1.015.455zm0 0" fill="#fff"/>
</svg>
